<?xml version="1.0" encoding="UTF-8"?>
<svg version="1.1" xmlns="http://www.w3.org/2000/svg" width="3457" height="4025">
<path d="M0 0 C1140.48 0 2280.96 0 3456 0 C3456 1327.92 3456 2655.84 3456 4024 C2315.52 4024 1175.04 4024 0 4024 C0 2696.08 0 1368.16 0 0 Z " fill="#111111" transform="translate(0,0)"/>
<path d="M0 0 C5.14239062 0.01130329 10.28457204 0.00467792 15.42695522 -0.00688362 C41.00738487 -0.05557034 66.43897019 0.59818867 91.96484375 2.26074219 C94.03137951 2.3882354 96.09794457 2.51525543 98.16455078 2.64160156 C102.91320686 2.93941643 107.65816006 3.27393091 112.40234375 3.63574219 C113.21750458 3.69732513 114.03266541 3.75890808 114.87252808 3.82235718 C130.98898672 5.05602463 146.9710263 6.90355692 162.96484375 9.26074219 C163.70200623 9.36880188 164.4391687 9.47686157 165.19866943 9.5881958 C213.16120817 16.63086982 261.34253192 24.28039571 307.99462891 37.70361328 C311.09765572 38.5810739 314.21934141 39.38550685 317.33984375 40.19824219 C377.83204039 56.24323124 437.02961823 78.44127945 493.96484375 104.26074219 C495.06989258 104.76105957 496.17494141 105.26137695 497.31347656 105.77685547 C518.05596766 115.19177957 538.40718424 125.16639532 558.3515625 136.17480469 C562.13110798 138.26066408 565.92487201 140.31605509 569.734375 142.34667969 C585.08308379 150.53945105 600.08796128 159.24343398 614.96484375 168.26074219 C615.94855957 168.8554834 616.93227539 169.45022461 617.94580078 170.06298828 C642.60337438 185.03560792 666.61940779 201.31609874 689.96484375 218.26074219 C691.10083008 219.08445312 691.10083008 219.08445312 692.25976562 219.92480469 C702.09640055 227.07585714 711.79654664 234.37015735 721.30859375 241.94726562 C722.97876372 243.27178132 724.65761305 244.58439934 726.33984375 245.89355469 C739.95609356 256.4975661 753.21349255 267.52443862 766.27197266 278.80615234 C767.96752665 280.26304746 769.67335401 281.70691698 771.3828125 283.14746094 C779.20267481 289.75387725 786.71845058 296.62986187 794.15234375 303.66699219 C797.42582598 306.76441064 800.74721415 309.80065159 804.08984375 312.82324219 C809.23397244 317.51182815 814.14360064 322.40326022 819.03564453 327.35302734 C821.92230625 330.26214712 824.81021797 333.07612802 827.96484375 335.69824219 C832.46099228 339.50708139 836.3412131 343.88483603 840.32446289 348.21386719 C844.73806236 352.99433721 849.27664974 357.62324703 853.90234375 362.19824219 C858.16864151 366.42585798 862.3502289 370.6509272 866.23046875 375.24121094 C868.57728756 377.97388058 871.02297476 380.61337947 873.46484375 383.26074219 C877.70297024 387.86832815 881.87970291 392.5169766 885.96484375 397.26074219 C886.82335938 398.25203125 887.681875 399.24332031 888.56640625 400.26464844 C895.92323163 408.78307783 903.11067515 417.43399739 910.234375 426.14794922 C911.88895331 428.16808476 913.55099799 430.18183151 915.21484375 432.19433594 C923.80999701 442.62924125 931.92249681 453.39644557 939.96484375 464.26074219 C941.17833496 465.89359218 942.39187586 467.52640526 943.60546875 469.15917969 C974.85411144 511.28640863 1003.0231422 555.46800615 1028.37255859 601.38476562 C1029.82543419 604.00894142 1031.293038 606.62415886 1032.765625 609.23730469 C1070.59371823 676.85569395 1101.76931888 750.767033 1122.40234375 825.51074219 C1124.33273953 832.47174222 1126.29598363 839.41352707 1128.40234375 846.32324219 C1139.40989134 883.15352721 1146.56933464 921.27428613 1153.27734375 959.07324219 C1153.53487427 960.50627686 1153.53487427 960.50627686 1153.79760742 961.96826172 C1153.95205322 962.85497559 1154.10649902 963.74168945 1154.265625 964.65527344 C1154.40137939 965.42718018 1154.53713379 966.19908691 1154.67700195 966.99438477 C1154.96484375 969.26074219 1154.96484375 969.26074219 1154.96484375 974.26074219 C1027.58484375 974.26074219 900.20484375 974.26074219 768.96484375 974.26074219 C767.31484375 968.32074219 765.66484375 962.38074219 763.96484375 956.26074219 C762.25874218 950.48201108 760.5403846 944.70952891 758.77734375 938.94824219 C758.42410034 937.79328247 758.42410034 937.79328247 758.0637207 936.61499023 C737.67303103 870.12183125 709.405348 806.46931614 672.84033203 747.29638672 C671.25827426 744.73568556 669.68527437 742.16984927 668.1171875 739.60058594 C657.64525951 722.52701538 645.99159682 706.26546083 633.96484375 690.26074219 C633.51012695 689.65536621 633.05541016 689.04999023 632.58691406 688.42626953 C618.5004364 669.74355069 603.38213669 651.92561252 587.41796875 634.82714844 C586.00550704 633.30457546 584.6079028 631.76981748 583.21484375 630.22949219 C577.05593325 623.43925829 570.68684682 616.87837465 564.21484375 610.38574219 C563.42263428 609.58894043 562.6304248 608.79213867 561.81420898 607.97119141 C557.61290437 603.78087462 553.32394546 599.77497932 548.82714844 595.90478516 C545.90308362 593.32342013 543.18967413 590.54908745 540.46484375 587.76074219 C536.42556857 583.67571095 532.35866276 579.7118621 527.9765625 575.99121094 C525.48200772 573.84540945 523.07265393 571.61488542 520.65234375 569.38574219 C515.2502059 564.46461662 509.65329471 559.84470965 503.96484375 555.26074219 C502.68800252 554.21614584 501.41201318 553.17050764 500.13671875 552.12402344 C492.77144114 546.08856306 485.35706718 540.16401657 477.67919922 534.52734375 C475.72479948 533.08339248 473.78447279 531.62145886 471.84375 530.15917969 C459.21351538 520.68820591 446.18971233 511.87763469 432.96484375 503.26074219 C432.14016602 502.7220752 431.31548828 502.1834082 430.46582031 501.62841797 C377.32016578 467.06042328 319.97062866 440.41437018 259.96484375 420.26074219 C259.28619263 420.03279968 258.6075415 419.80485718 257.9083252 419.57000732 C179.39542231 393.26853651 97.6170136 379.30981583 14.78497314 379.81121826 C11.00669994 379.82732734 7.22867075 379.81708758 3.45038986 379.80748081 C-35.9934825 379.72780515 -74.98319093 382.85209518 -113.85742188 389.70166016 C-117.22252041 390.29370653 -120.58968941 390.87300678 -123.95703125 391.45214844 C-135.12691289 393.39064065 -146.2653082 395.43040953 -157.34765625 397.82324219 C-158.64231812 398.10155884 -158.64231812 398.10155884 -159.96313477 398.38549805 C-167.06985058 399.95836802 -174.09276567 401.8325568 -181.1156311 403.73995972 C-182.95994753 404.24033746 -184.80551099 404.7361119 -186.65112305 405.23168945 C-237.67218048 418.99419994 -286.67017325 437.62461958 -334.14257812 460.84814453 C-336.82597078 462.15858595 -339.51571443 463.45496076 -342.20703125 464.74902344 C-354.53987789 470.7354631 -366.33789543 477.52700236 -378.1171875 484.53173828 C-383.07385442 487.46874591 -388.05497162 490.3638472 -393.03515625 493.26074219 C-391.58848702 496.57482954 -389.78699157 498.75872185 -387.23702552 501.30821525 C-386.43830951 502.11163705 -385.63959349 502.91505886 -384.81667396 503.74282678 C-383.93235904 504.62212395 -383.04804412 505.50142112 -382.13693178 506.40736365 C-381.18767881 507.35834745 -380.23886489 508.30976965 -379.29045108 509.26159033 C-376.6653165 511.89357925 -374.03394358 514.51925463 -371.40157128 517.14400206 C-368.5348798 520.00458729 -365.67399097 522.87096578 -362.81236768 525.73661941 C-357.77098016 530.78349009 -352.72585623 535.82660182 -347.67833106 540.86733374 C-340.12205041 548.4134844 -332.57153254 555.96538164 -325.02215769 563.51844026 C-312.15789355 576.38864544 -299.28888041 589.25409255 -286.41731453 602.11699486 C-273.36700032 615.15856378 -260.31886052 628.20230243 -247.27339363 641.24872017 C-246.45052605 642.07164513 -245.62765848 642.89457009 -244.77985552 643.74243217 C-240.58432627 647.93827416 -236.38883261 652.13415171 -232.19335152 656.33004184 C-201.79778016 686.7284309 -171.39736519 717.12197218 -140.99439621 747.51296234 C-133.47290555 755.03149659 -125.95143081 762.55004675 -118.43002272 770.0686636 C-117.96247931 770.53603347 -117.49493591 771.00340334 -117.01322452 771.48493593 C-94.89077605 793.59921804 -72.77103238 815.71620494 -50.65187454 837.83377838 C-49.7079073 838.77767631 -48.76393995 839.72157414 -47.8199725 840.66547186 C-39.2847288 849.20008738 -30.74951182 857.73472962 -22.2143257 866.26940272 C-0.99509169 887.48735898 20.2244629 908.70499461 41.44423485 929.92241287 C41.92733362 930.40545838 42.4104324 930.88850389 42.90817053 931.38618714 C74.20166017 962.67622117 105.49646948 993.96493492 136.79238319 1025.2525444 C137.54197392 1026.00193626 137.54197392 1026.00193626 138.30670789 1026.76646735 C153.51903568 1041.9747537 168.73146111 1057.18294238 183.94390564 1072.39111196 C200.77841447 1089.22089087 217.61290664 1106.05068645 234.44732666 1122.8805542 C234.95353892 1123.38662946 235.45975118 1123.89270472 235.9813032 1124.41411559 C284.05374536 1172.47355863 332.12349929 1220.53569009 380.19255764 1268.5985176 C382.22841962 1270.6341153 384.26428238 1272.66971222 386.30014518 1274.70530911 C405.03449497 1293.43721211 423.7688132 1312.16914668 442.50309179 1330.90112089 C443.00125012 1331.39921794 443.49940846 1331.89731499 444.0126625 1332.4105059 C445.5209519 1333.91860977 447.02924129 1335.42671366 448.53753068 1336.93481755 C489.28547251 1377.67774759 530.03368962 1418.4204023 570.78208507 1459.16287866 C572.21983453 1460.60041942 573.65758379 1462.03796039 575.09533298 1463.47550143 C643.86807031 1532.23827928 712.64260038 1600.9992638 834.16259766 1722.49023438 C834.97136086 1723.29879771 835.78012406 1724.10736104 836.61339524 1724.94042629 C877.06368998 1765.38071973 917.51415812 1805.82083973 957.96484375 1846.26074219 C956.54051959 1849.23890936 955.1858111 1851.24005901 952.77734375 1853.51074219 C950.41226792 1855.74842518 948.264337 1858.07565754 946.1640625 1860.55761719 C939.52752172 1868.20220662 932.11555202 1875.16183701 924.92578125 1882.27929688 C915.62027185 1891.44457984 915.62027185 1891.44457984 906.87109375 1901.13183594 C901.24775817 1907.41199555 895.06237547 1913.20758807 889.07128906 1919.13378906 C887.22117756 1920.96563972 885.37421463 1922.80062526 883.52734375 1924.63574219 C882.97296631 1925.18182129 882.41858887 1925.72790039 881.84741211 1926.29052734 C878.95946193 1929.16072817 876.20703305 1932.09534593 873.546875 1935.17871094 C869.91177829 1939.37989221 866.04056168 1943.29534141 862.08984375 1947.19824219 C861.36168457 1947.92261475 860.63352539 1948.6469873 859.88330078 1949.39331055 C856.80427424 1952.45616643 853.71926052 1955.5129653 850.63476562 1958.5703125 C848.36768917 1960.81918336 846.10371409 1963.07114457 843.83984375 1965.32324219 C843.15422363 1966.00056396 842.46860352 1966.67788574 841.76220703 1967.37573242 C837.85211995 1971.26617804 834.13872257 1975.25939709 830.5617981 1979.45906067 C827.85946425 1982.50782969 824.85377576 1985.21322211 821.83984375 1987.94824219 C816.78735906 1992.59193551 811.84837672 1997.31462611 807.02734375 2002.19824219 C803.19627494 2006.07033984 799.33276074 2009.80551512 795.17578125 2013.33105469 C792.0939445 2016.02085567 789.13364705 2018.83549775 786.15234375 2021.63574219 C781.12693656 2026.34121715 775.97510239 2030.78924876 770.59765625 2035.09277344 C767.85515221 2037.35106682 765.25546785 2039.71855552 762.65234375 2042.13574219 C758.04404314 2046.37695199 753.2491348 2050.25552247 748.29980469 2054.08227539 C744.24176307 2057.22863981 740.29870348 2060.47929418 736.40234375 2063.82324219 C730.10030072 2069.21223481 723.58502211 2074.27060215 716.96484375 2079.26074219 C716.35801758 2079.72061523 715.75119141 2080.18048828 715.12597656 2080.65429688 C704.52427716 2088.6885247 693.79160443 2096.53285513 682.96484375 2104.26074219 C681.83731689 2105.06801758 681.83731689 2105.06801758 680.68701172 2105.89160156 C658.72211478 2121.58148314 636.02896468 2136.24438146 612.96484375 2150.26074219 C611.69395057 2151.03929034 610.42311318 2151.81792957 609.15234375 2152.59667969 C597.92434642 2159.4403387 586.4463464 2165.85488616 574.96484375 2172.26074219 C573.66861084 2172.98535645 573.66861084 2172.98535645 572.34619141 2173.72460938 C524.04136502 2200.64492565 473.86212388 2224.12288463 421.96484375 2243.26074219 C420.63918515 2243.75418735 419.31367124 2244.24802133 417.98828125 2244.7421875 C397.07085601 2252.52956754 375.9902468 2259.62385371 354.65731812 2266.18667603 C350.8507236 2267.35865852 347.05207496 2268.55019758 343.26318359 2269.77832031 C332.50407372 2273.25651377 321.70321127 2276.22650026 310.71484375 2278.88574219 C307.68821783 2279.62555529 304.66242682 2280.36874791 301.63671875 2281.11230469 C300.90643463 2281.29113693 300.17615051 2281.46996918 299.42373657 2281.65422058 C293.31603203 2283.15649237 287.24144288 2284.76889813 281.16796875 2286.40332031 C258.36891842 2292.50623683 235.08331308 2296.47963652 211.83984375 2300.44824219 C210.8225116 2300.62254761 209.80517944 2300.79685303 208.75701904 2300.97644043 C198.29548358 2302.76447404 187.84646232 2304.48199027 177.31738281 2305.82397461 C170.89841069 2306.66023598 164.50541899 2307.67894612 158.11816406 2308.72851562 C140.20404711 2311.64936268 122.24784461 2313.14479262 104.15234375 2314.44824219 C102.98954895 2314.53273621 101.82675415 2314.61723022 100.62872314 2314.70428467 C77.23254203 2316.38724087 53.92263102 2317.4338134 30.46484375 2317.32324219 C28.55078246 2317.31820176 26.63671984 2317.31364348 24.72265625 2317.30957031 C20.13668439 2317.29880119 15.55077995 2317.28168695 10.96484375 2317.26074219 C10.96484375 2318.25074219 10.96484375 2319.24074219 10.96484375 2320.26074219 C-35.31825898 2320.98034074 -81.10974239 2317.93033719 -127.03515625 2312.26074219 C-127.89063049 2312.15548218 -128.74610474 2312.05022217 -129.62750244 2311.94177246 C-149.46245914 2309.48991379 -169.17498414 2306.60661886 -188.81445312 2302.87255859 C-191.95380417 2302.27619612 -195.09562787 2301.69488508 -198.23828125 2301.11621094 C-234.17040974 2294.42873271 -269.94217868 2286.49203676 -305.03515625 2276.26074219 C-305.73918579 2276.05642578 -306.44321533 2275.85210938 -307.1685791 2275.64160156 C-389.26284025 2251.81395009 -470.96081971 2220.7749483 -553.46630859 2173.73095703 C-557.68129726 2171.3186151 -561.95478938 2169.01525045 -566.22265625 2166.69824219 C-572.92677363 2163.03523617 -579.5442034 2159.24963936 -586.09765625 2155.32324219 C-587.17406372 2154.67923462 -587.17406372 2154.67923462 -588.2722168 2154.0222168 C-603.57202889 2144.77415958 -618.55648318 2135.03065893 -633.42407227 2125.10668945 C-636.09696461 2123.32370355 -638.77392594 2121.54694786 -641.45117188 2119.77050781 C-656.60719697 2109.68539576 -671.41478918 2099.17153407 -685.84765625 2088.07324219 C-687.17035522 2087.06064331 -687.17035522 2087.06064331 -688.51977539 2086.02758789 C-691.02662107 2084.10753388 -693.53102177 2082.18432974 -696.03515625 2080.26074219 C-697.27714896 2079.30996685 -698.51931376 2078.35941623 -699.76171875 2077.40917969 C-702.86069092 2075.03643593 -705.94981068 2072.6511901 -709.03515625 2070.26074219 C-709.59219238 2069.82987305 -710.14922852 2069.39900391 -710.72314453 2068.95507812 C-718.28156922 2063.09945643 -725.67676237 2057.09330392 -732.9453125 2050.88183594 C-735.81093319 2048.43770885 -738.72921147 2046.06378485 -741.66015625 2043.69824219 C-746.42035678 2039.82494947 -750.96320409 2035.75314226 -755.48046875 2031.60058594 C-757.6621344 2029.6023937 -759.86526934 2027.6392533 -762.09765625 2025.69824219 C-775.84982373 2013.71697756 -789.21848308 2001.29820818 -801.98706055 1988.27197266 C-804.65703726 1985.56273708 -807.32692496 1982.95856621 -810.2734375 1980.54980469 C-812.51003821 1978.69598854 -814.27638313 1976.99294323 -816.09765625 1974.76074219 C-819.38936221 1970.88987193 -822.92301941 1967.32794433 -826.53515625 1963.76074219 C-830.53118138 1959.80502439 -834.40094661 1955.82942962 -838.0390625 1951.53808594 C-840.91111037 1948.26136596 -843.91999132 1945.11697715 -846.91015625 1941.94824219 C-851.80253185 1936.74860975 -856.44617325 1931.44094414 -860.90234375 1925.85839844 C-863.146449 1923.12519332 -865.50383378 1920.53937626 -867.91015625 1917.94824219 C-872.13031586 1913.36337742 -875.98219033 1908.59249467 -879.78637695 1903.66601562 C-883.09952628 1899.39555366 -886.55087289 1895.2760219 -890.09765625 1891.19824219 C-895.25498415 1885.25358649 -900.09607026 1879.12429341 -904.83496094 1872.84326172 C-906.79633257 1870.25709188 -908.79491153 1867.69972196 -910.78515625 1865.13574219 C-934.19367595 1834.75585817 -955.92981605 1802.92040932 -976.03515625 1770.26074219 C-976.98720947 1768.71966797 -976.98720947 1768.71966797 -977.95849609 1767.14746094 C-988.07301422 1750.74477267 -997.77312409 1734.16354489 -1007.03515625 1717.26074219 C-1007.83904785 1715.80740479 -1007.83904785 1715.80740479 -1008.65917969 1714.32470703 C-1044.49158642 1649.50416437 -1073.11989012 1581.59301447 -1096.07991028 1511.22392273 C-1097.157078 1507.92348684 -1098.24527953 1504.62775624 -1099.36303711 1501.34082031 C-1102.02443965 1493.50405453 -1104.38966552 1485.64561246 -1106.47265625 1477.63574219 C-1108.32188487 1470.62665834 -1110.19285377 1463.63393608 -1112.25585938 1456.68457031 C-1118.5809154 1435.29657434 -1123.3009551 1413.42367198 -1127.72265625 1391.57324219 C-1127.98361084 1390.29626465 -1128.24456543 1389.01928711 -1128.51342773 1387.70361328 C-1131.43761209 1372.94327104 -1133.63485574 1358.14260534 -1136.03515625 1343.26074219 C-1007.66515625 1343.26074219 -879.29515625 1343.26074219 -747.03515625 1343.26074219 C-741.03515625 1364.26074219 -741.03515625 1364.26074219 -738.72265625 1373.88574219 C-735.91942272 1385.51247216 -731.99761799 1396.75716248 -728.12109375 1408.06152344 C-727.14995624 1410.92253646 -726.20815706 1413.79016257 -725.28515625 1416.66699219 C-698.38268834 1500.29647728 -653.00816067 1578.78217575 -597.03515625 1646.26074219 C-595.53508501 1648.11485122 -594.035086 1649.96901869 -592.53515625 1651.82324219 C-588.86187458 1656.31565288 -585.04736798 1660.65040899 -581.140625 1664.94042969 C-579.3059794 1666.96228403 -577.50746839 1669.00752741 -575.72265625 1671.07324219 C-569.01492053 1678.73705789 -562.16221813 1686.20916837 -554.8828125 1693.33496094 C-553.98135498 1694.22022461 -553.07989746 1695.10548828 -552.15112305 1696.01757812 C-550.34771414 1697.78131107 -548.53556793 1699.53616163 -546.71411133 1701.28125 C-545.46150513 1702.50666504 -545.46150513 1702.50666504 -544.18359375 1703.75683594 C-543.43255371 1704.48056396 -542.68151367 1705.20429199 -541.90771484 1705.94995117 C-539.75229634 1708.60979943 -539.03797323 1711.01336782 -538.03515625 1714.26074219 C-535.66909436 1716.89352378 -535.66909436 1716.89352378 -532.72265625 1719.32324219 C-531.63547838 1720.27477218 -530.55093984 1721.22932429 -529.46875 1722.18652344 C-528.90526855 1722.68361816 -528.34178711 1723.18071289 -527.76123047 1723.69287109 C-524.8277438 1726.3574894 -522.06319091 1729.18590501 -519.28515625 1732.01074219 C-515.30653669 1736.03307643 -511.29568542 1739.93145381 -506.98046875 1743.59667969 C-504.68282693 1745.56213233 -502.45642502 1747.5980409 -500.22265625 1749.63574219 C-495.98074775 1753.45988697 -491.62964528 1757.10963674 -487.1875 1760.69824219 C-484.84655744 1762.59095131 -482.53266413 1764.51324394 -480.2265625 1766.44824219 C-470.50318042 1774.58392154 -460.50329782 1782.22314773 -450.23535156 1789.65722656 C-448.24615536 1791.10696476 -446.27372285 1792.57550679 -444.30859375 1794.05761719 C-427.66586958 1806.56895684 -409.92103677 1817.62448781 -392.03515625 1828.26074219 C-391.31005859 1828.69273926 -390.58496094 1829.12473633 -389.83789062 1829.56982422 C-329.86947365 1865.14810145 -263.59527332 1895.08385857 -195.45703125 1910.94433594 C-191.53366826 1911.86171052 -187.69180704 1912.94543669 -183.83203125 1914.10058594 C-174.55245849 1916.7853494 -165.11619497 1918.73519275 -155.66748047 1920.72509766 C-152.5397717 1921.38476873 -149.41437217 1922.0546515 -146.2890625 1922.72558594 C-135.89406731 1924.94033623 -125.58039252 1926.91519843 -115.03515625 1928.26074219 C-113.03585017 1928.54941471 -111.03656947 1928.83829782 -109.03807068 1929.13250732 C-93.34288509 1931.44098499 -77.64645543 1933.55125605 -61.84765625 1935.01074219 C-60.6045166 1935.12603271 -59.36137695 1935.24132324 -58.08056641 1935.36010742 C-42.37794319 1936.74723898 -26.76993853 1937.42870546 -11.01171875 1937.46386719 C-9.69398027 1937.46810825 -9.69398027 1937.46810825 -8.34962082 1937.472435 C-3.68620269 1937.48730177 0.97718559 1937.49660592 5.640625 1937.50097656 C9.40797797 1937.50532695 13.1750975 1937.51910277 16.94238281 1937.54199219 C40.21470963 1937.68051619 63.1373988 1937.04273057 86.29388428 1934.63816833 C89.95996125 1934.26124418 93.62777276 1933.91801859 97.2980957 1933.58520508 C138.18235085 1929.85039242 179.55704225 1921.94213268 218.8918457 1910.17480469 C221.17331683 1909.49618167 223.459009 1908.83171585 225.74682617 1908.17480469 C236.86716535 1904.97640789 247.83256409 1901.38821247 258.77734375 1897.63574219 C259.66980804 1897.33016388 260.56227234 1897.02458557 261.48178101 1896.70974731 C286.97770504 1887.95927896 311.69737428 1878.02663394 335.96484375 1866.26074219 C336.69072693 1865.90993591 337.41661011 1865.55912964 338.16448975 1865.19769287 C359.68156201 1854.79206896 380.67742587 1843.91891344 400.96484375 1831.26074219 C402.01236816 1830.62201172 403.05989258 1829.98328125 404.13916016 1829.32519531 C405.15026855 1828.70064453 406.16137695 1828.07609375 407.203125 1827.43261719 C408.11747314 1826.87155273 409.03182129 1826.31048828 409.97387695 1825.73242188 C410.630896 1825.24676758 411.28791504 1824.76111328 411.96484375 1824.26074219 C412.18127683 1822.14007101 412.18127683 1822.14007101 410.50710648 1820.55327467 C409.81532336 1819.86161956 409.12354024 1819.16996445 408.41079399 1818.4573501 C407.61560659 1817.6574569 406.82041918 1816.8575637 406.00113519 1816.03343132 C405.11048401 1815.14779789 404.21983282 1814.26216446 403.30219221 1813.34969366 C402.35411758 1812.39988975 401.40648205 1811.44964736 400.45924884 1810.49900431 C397.8280683 1807.86094586 395.19061764 1805.22923214 392.55219549 1802.59841903 C389.68240657 1799.73472093 386.81840292 1796.86524712 383.95367652 1793.99648631 C378.90370439 1788.94102384 373.84998482 1783.8893313 368.79387528 1778.84000735 C361.2247123 1771.28096305 353.66129948 1763.71618479 346.09903796 1756.15023688 C333.21359814 1743.25885231 320.32340337 1730.37223171 307.43066216 1717.48814964 C294.35693363 1704.42316327 281.2853762 1691.35601049 268.21649361 1678.28617668 C267.39246353 1677.46208922 266.56843346 1676.63800176 265.71943277 1675.78894196 C261.51805247 1671.58724892 257.31670774 1667.3855203 253.11537559 1663.1837791 C222.66938184 1632.7349669 192.21854242 1602.29100454 161.76515198 1571.8495903 C154.22961514 1564.31700985 146.69409421 1556.78441349 139.15863991 1549.25175047 C138.69022954 1548.78351364 138.22181917 1548.3152768 137.73921455 1547.83285098 C116.05210759 1526.15373486 94.36756286 1504.47205652 72.68367656 1482.78971905 C71.26599964 1481.37214366 69.84832152 1479.95456948 68.43064309 1478.5369956 C59.88217242 1469.98915311 51.33372847 1461.4412839 42.78531538 1452.89338383 C21.53276885 1431.64211509 0.27990175 1410.39116697 -20.97318268 1389.14043617 C-21.45705103 1388.65662108 -21.94091939 1388.172806 -22.43945042 1387.67432984 C-53.78529776 1356.33193839 -85.13246481 1324.99086725 -116.48073578 1293.65089989 C-116.98133659 1293.15043166 -117.4819374 1292.64996342 -117.99770793 1292.13432949 C-133.23677991 1276.89929898 -148.47594951 1261.66436612 -163.71513821 1246.42945235 C-180.57927198 1229.57004847 -197.4433891 1212.71062794 -214.30743408 1195.85113525 C-214.81453404 1195.34417229 -215.321634 1194.83720933 -215.84410063 1194.31488386 C-263.99677454 1146.17520796 -312.14676115 1098.03284457 -360.29605197 1049.88978493 C-362.33519803 1047.85090317 -364.37434485 1045.81202218 -366.41349172 1043.77314123 C-385.17799842 1025.0110813 -403.94247358 1006.24898981 -422.70690909 987.48685869 C-423.20586736 986.9879617 -423.70482562 986.48906472 -424.21890383 985.97504964 C-425.72961518 984.46452383 -427.24032651 982.953998 -428.75103784 981.44347217 C-469.56489804 940.63462382 -510.3790335 899.82605077 -551.19334725 859.01765603 C-552.63343698 857.577775 -554.07352651 856.13789376 -555.51361596 854.69801246 C-621.78703102 788.43417934 -688.06207321 722.17197389 -815.01757812 595.24658203 C-816.23282176 594.0316382 -816.23282176 594.0316382 -817.47261577 592.79215005 C-857.99327455 552.28149266 -898.51410669 511.77100869 -939.03515625 471.26074219 C-935.19072846 463.29984738 -928.16334866 457.25345617 -921.94140625 451.10449219 C-921.19105103 450.35792358 -920.4406958 449.61135498 -919.66760254 448.84216309 C-916.49299121 445.68373106 -913.31239709 442.5313494 -910.13232422 439.37841797 C-907.79575264 437.06004473 -905.46227626 434.73858699 -903.12890625 432.41699219 C-902.42141235 431.71779663 -901.71391846 431.01860107 -900.98498535 430.29821777 C-897.07171312 426.40402219 -893.37448891 422.40008936 -889.76965332 418.22009277 C-886.85340607 414.92579447 -883.72771242 411.85033196 -880.59765625 408.76074219 C-879.57200562 407.74077148 -879.57200562 407.74077148 -878.52563477 406.70019531 C-875.63777852 403.82849075 -872.7439255 400.96285781 -869.85058594 398.09667969 C-867.722499 395.98681432 -865.59752708 393.87384574 -863.47265625 391.76074219 C-862.83078369 391.12716797 -862.18891113 390.49359375 -861.52758789 389.84082031 C-858.41408948 386.74397597 -855.41882732 383.59917446 -852.54882812 380.27441406 C-849.00573501 376.17191132 -845.23452342 372.34940537 -841.37890625 368.54199219 C-840.31996155 367.48872742 -840.31996155 367.48872742 -839.23962402 366.41418457 C-836.2561825 363.44690452 -833.26674915 360.48568856 -830.27783203 357.52392578 C-828.08025046 355.34455754 -825.88577687 353.16209272 -823.69140625 350.97949219 C-823.02765991 350.32404419 -822.36391357 349.66859619 -821.68005371 348.99328613 C-817.78713146 345.12053319 -814.09876084 341.13353418 -810.52955627 336.95986938 C-808.6564587 334.8301645 -806.62697216 332.97789425 -804.47265625 331.13574219 C-800.10683814 327.2964884 -795.99458913 323.26797798 -791.91015625 319.13574219 C-787.75329098 314.93911415 -783.58973755 310.84145919 -779.078125 307.02246094 C-776.92970143 305.16980505 -774.84866023 303.25180877 -772.76977539 301.32177734 C-767.58229369 296.50675962 -762.26630157 291.94678598 -756.75 287.50683594 C-753.9284213 285.17243629 -751.22924913 282.7408362 -748.53515625 280.26074219 C-743.20547735 275.36705959 -737.66819137 270.79866375 -732.03515625 266.26074219 C-730.77008826 265.22779986 -729.50581345 264.19388561 -728.2421875 263.15917969 C-720.57903437 256.89067592 -712.8576729 250.7266366 -704.97314453 244.73779297 C-702.69509597 243.00156296 -700.42580462 241.25415364 -698.15625 239.50683594 C-687.95948315 231.67292943 -677.66412262 224.04193151 -667.10449219 216.70507812 C-664.9717631 215.21649563 -662.84982935 213.71360167 -660.73046875 212.20605469 C-652.26705485 206.18696875 -643.7398831 200.2890843 -635.05761719 194.58984375 C-633.6658654 193.6752256 -632.27599431 192.7577413 -630.88769531 191.83789062 C-599.94861145 171.34158648 -567.79237058 152.68313855 -535.03515625 135.26074219 C-533.67487305 134.53322754 -533.67487305 134.53322754 -532.28710938 133.79101562 C-476.46273883 103.98442933 -418.0360958 79.31148217 -358.03515625 59.26074219 C-357.38268921 59.04266907 -356.73022217 58.82459595 -356.0579834 58.59991455 C-343.77103468 54.50413224 -331.42847104 50.70973387 -318.92578125 47.33105469 C-315.60162786 46.42869289 -312.31784993 45.43023563 -309.03515625 44.38574219 C-290.03815878 38.4876719 -270.70565782 33.90693322 -251.28730774 29.64186096 C-246.2017675 28.52374356 -241.12361147 27.37513867 -236.046875 26.21777344 C-217.78677691 22.06699962 -199.52292282 18.28033706 -181.03515625 15.26074219 C-179.96716797 15.08591309 -178.89917969 14.91108398 -177.79882812 14.73095703 C-170.22097779 13.50363974 -162.63263473 12.35956022 -155.03515625 11.26074219 C-153.91044922 11.09719238 -152.78574219 10.93364258 -151.62695312 10.76513672 C-135.90161317 8.5051152 -120.1518706 6.67391262 -104.34765625 5.07324219 C-103.52287781 4.98856689 -102.69809937 4.9038916 -101.84832764 4.81665039 C-92.43019537 3.85628355 -83.0342733 3.08916362 -73.57618713 2.66615295 C-69.26585864 2.46393935 -64.98111401 2.18089763 -60.68579102 1.76489258 C-40.47408093 -0.14936397 -20.28380883 -0.04503269 0 0 Z " fill="#D62222" transform="translate(1648.03515625,614.7392578125)"/>
<path d="M0 0 C28.05 0 56.1 0 85 0 C94.17462622 18.34925245 94.17462622 18.34925245 97.0859375 25.125 C97.42493073 25.90302979 97.76392395 26.68105957 98.1131897 27.48266602 C98.8324301 29.13399932 99.54989454 30.78610722 100.265625 32.43896484 C102.21658398 36.94282922 104.18268826 41.44007562 106.1484375 45.9375 C106.55132996 46.85982422 106.95422241 47.78214844 107.36932373 48.73242188 C111.50672748 58.18792485 115.74746389 67.59585872 120 77 C126.47036904 91.31666361 132.83052086 105.67795764 139.125 120.07275391 C144.6711542 132.75139722 150.30169799 145.38904429 156 158 C162.46926155 172.31717215 168.83051423 186.67794248 175.125 201.07275391 C180.67115445 213.75139779 186.30173207 226.38902842 192 239 C198.18724109 252.69339514 204.28755074 266.42191389 210.3125 280.1875 C215.87913841 292.90542842 221.48241128 305.60385286 227.17797852 318.26464844 C232.06887309 329.13805289 236.91096665 340.03280197 241.74267578 350.93261719 C245.40009033 359.17851324 249.08292763 367.41221145 252.796875 375.6328125 C253.97996265 378.2568886 255.16268605 380.88112862 256.34533691 383.50540161 C257.11144907 385.20202133 257.87957842 386.89773171 258.64978027 388.59249878 C259.71936327 390.94619406 260.78220423 393.30282767 261.84375 395.66015625 C262.16478699 396.36153717 262.48582397 397.06291809 262.81658936 397.78555298 C264.12451197 400.70472882 265 402.76236652 265 406 C232.33 406 199.66 406 166 406 C162.308125 397.3375 158.61625 388.675 154.8125 379.75 C153.6572583 377.04006836 152.5020166 374.33013672 151.31176758 371.53808594 C150.38098433 369.35353173 149.45023659 367.1689624 148.51953125 364.984375 C147.81298401 363.32752686 147.81298401 363.32752686 147.09216309 361.63720703 C146.62580444 360.54230957 146.1594458 359.44741211 145.67895508 358.31933594 C145.28146561 357.38667908 144.88397614 356.45402222 144.47444153 355.49310303 C142.29783106 350.33648984 140.15275703 345.16661687 138 340 C74.97 339.67 11.94 339.34 -53 339 C-53.99 341.97 -54.98 344.94 -56 348 C-56.77925824 349.9827755 -57.58362859 351.95598557 -58.42016602 353.9152832 C-58.87396133 354.98281326 -59.32775665 356.05034332 -59.79530334 357.15022278 C-60.2766423 358.27240707 -60.75798126 359.39459137 -61.25390625 360.55078125 C-62.00618752 362.31532906 -62.00618752 362.31532906 -62.77366638 364.11552429 C-63.8284993 366.58791372 -64.88460612 369.05970523 -65.94311523 371.53051758 C-67.29695484 374.69080577 -68.64657158 377.8528749 -69.9946909 381.01560688 C-71.28787908 384.04882742 -72.58337487 387.08106093 -73.87890625 390.11328125 C-74.36226944 391.2455867 -74.84563263 392.37789215 -75.34364319 393.54450989 C-75.79428635 394.59627914 -76.2449295 395.6480484 -76.70922852 396.73168945 C-77.10433121 397.65496536 -77.4994339 398.57824127 -77.9065094 399.52949524 C-78.87411191 401.71558318 -79.93086623 403.86173246 -81 406 C-113.67 406 -146.34 406 -180 406 C-177.96102676 399.88308027 -175.86777203 394.18265309 -173.18359375 388.375 C-172.63112976 387.16376968 -172.63112976 387.16376968 -172.06750488 385.92807007 C-171.27484954 384.19069265 -170.48031052 382.4541736 -169.68405151 380.71844482 C-167.52853223 376.01774841 -165.3890302 371.30978021 -163.25 366.6015625 C-162.81034409 365.63425201 -162.37068817 364.66694153 -161.91770935 363.6703186 C-157.50489972 353.94269577 -153.21173861 344.16411485 -148.9375 334.375 C-143.04088054 320.87857644 -137.06509844 307.42155968 -131 294 C-124.91609605 280.53598214 -118.91944179 267.03712622 -113 253.5 C-106.71561719 239.12829295 -100.33383684 224.80435507 -93.875 210.51025391 C-87.78521617 197.02762053 -81.80920834 183.49817755 -75.88204956 169.94335938 C-70.18779952 156.92615221 -64.40752711 143.95018404 -58.5625 131 C-53.45577218 119.68480643 -48.36943254 108.36327431 -43.38964844 96.99145508 C-36.59847207 81.4957556 -29.69641364 66.04888466 -22.81959534 50.59106445 C-19.96101056 44.16433176 -17.1078898 37.73519691 -14.2578125 31.3046875 C-13.16402018 28.83822711 -12.07011502 26.37181681 -10.97616577 23.90542603 C-10.29063694 22.35907359 -9.60558862 20.81250804 -8.92105103 19.26571655 C-7.97857785 17.13621751 -7.03439215 15.00748545 -6.08984375 12.87890625 C-5.56253662 11.6885376 -5.03522949 10.49816895 -4.49194336 9.27172852 C-3.06707493 6.14709068 -1.53581325 3.07162649 0 0 Z " fill="#EDEDED" transform="translate(1796,3030)"/>
<path d="M0 0 C209.26275992 0 209.26275992 0 252 36 C252.78890625 36.63035156 253.5778125 37.26070312 254.390625 37.91015625 C279.6040498 59.01623282 292.11534463 91.81089031 295.82568359 123.70629883 C296.92890842 138.22282152 297.1121649 153.72696788 294 168 C293.75507813 169.21429687 293.51015625 170.42859375 293.2578125 171.6796875 C288.08214053 195.63291326 277.15253892 215.67569031 260 233 C259.39800781 233.66257812 258.79601563 234.32515625 258.17578125 235.0078125 C244.59941615 249.71269157 224.67613966 258.79757384 206 265 C204.92105469 265.36738281 203.84210937 265.73476562 202.73046875 266.11328125 C178.46478631 273.71281178 154.13601671 273.49759152 129 273.25 C117.12 273.1675 105.24 273.085 93 273 C93 317.22 93 361.44 93 407 C62.31 407 31.62 407 0 407 C0 272.69 0 138.38 0 0 Z " fill="#EDEDED" transform="translate(2450,3030)"/>
<path d="M0 0 C0.556875 0.44859375 1.11375 0.8971875 1.6875 1.359375 C15.02550847 12.19650689 25.97805729 24.25468925 35.82519531 38.32421875 C36.88808493 39.84036055 37.97029249 41.34291432 39.0546875 42.84375 C39.61414062 43.6378125 40.17359375 44.431875 40.75 45.25 C41.21921875 45.91515625 41.6884375 46.5803125 42.171875 47.265625 C43 49 43 49 42 52 C39.84566921 53.48341761 37.72883736 54.80265849 35.46484375 56.09765625 C34.79909836 56.48815659 34.13335297 56.87865692 33.44743347 57.2809906 C32.02151913 58.11616944 30.59325401 58.94734516 29.16290283 59.77490234 C26.19162991 61.49405359 23.23151235 63.23196694 20.27093506 64.9694519 C18.81629083 65.82304085 17.36109356 66.67568805 15.90533447 67.52737427 C10.92907583 70.44130523 5.99644296 73.41333318 1.125 76.5 C0.54339111 76.86730225 -0.03821777 77.23460449 -0.63745117 77.61303711 C-1.79242822 78.34282941 -2.94713377 79.07305158 -4.1015625 79.80371094 C-8.01157793 82.26758383 -11.94126487 84.69923539 -15.875 87.125 C-16.65601074 87.61162109 -17.43702148 88.09824219 -18.24169922 88.59960938 C-18.96373535 89.04369141 -19.68577148 89.48777344 -20.4296875 89.9453125 C-21.07147949 90.34250488 -21.71327148 90.73969727 -22.37451172 91.14892578 C-24 92 -24 92 -26 92 C-27.30567127 90.50518943 -28.54251025 88.950184 -29.75 87.375 C-44.37063816 69.22201567 -61.23681837 54.85445528 -85 51 C-88.46387169 50.71665051 -91.90066794 50.66530587 -95.375 50.6875 C-96.30038574 50.69313965 -97.22577148 50.6987793 -98.17919922 50.70458984 C-110.02303589 50.91515621 -120.99976239 53.84394689 -130.10546875 61.8515625 C-137.3872842 69.6457445 -139.65650626 76.93685164 -139.32421875 87.55859375 C-138.32249977 98.19129759 -134.17161809 105.93928632 -125.99194336 112.82983398 C-122.68966305 115.22509875 -119.28611664 117.02736188 -115.6015625 118.73828125 C-114.86872543 119.08030075 -114.13588837 119.42232025 -113.38084412 119.77470398 C-104.50066916 123.81619325 -95.31638976 127.0138779 -86.11627197 130.23937988 C-21.32172406 153.00870695 -21.32172406 153.00870695 4 172 C4.53560547 172.3933252 5.07121094 172.78665039 5.62304688 173.19189453 C31.44891857 192.24174308 49.50404249 216.54666591 54.60961914 248.84570312 C55.24315243 253.96468382 55.34084143 259.03421817 55.3125 264.1875 C55.30686035 265.27611328 55.3012207 266.36472656 55.29541016 267.48632812 C54.83275853 298.50689037 41.86977773 326.09401403 20 348 C-0.19804457 366.45135833 -25.38039793 378.48325465 -51.875 384.6875 C-52.73601318 384.89028564 -53.59702637 385.09307129 -54.48413086 385.30200195 C-68.15982768 388.33893231 -81.8362187 389.44178535 -95.8125 389.4375 C-96.5636911 389.4385675 -97.3148822 389.43963501 -98.08883667 389.44073486 C-141.4697645 389.35267498 -182.30026257 372.59690295 -213.25 342.125 C-225.7111527 329.46741533 -234.95322678 314.73185912 -242.5625 298.75 C-242.90941895 298.02264648 -243.25633789 297.29529297 -243.61376953 296.54589844 C-245.00544407 293.53428906 -246 291.35684424 -246 288 C-245.41847168 287.69932617 -244.83694336 287.39865234 -244.23779297 287.08886719 C-233.46017396 281.50921939 -222.70891265 275.88931216 -212.0625 270.0625 C-211.17957275 269.57974609 -210.29664551 269.09699219 -209.38696289 268.59960938 C-205.50554693 266.47479502 -201.6266098 264.34561505 -197.75195312 262.20849609 C-194.44171809 260.38363527 -191.12733816 258.56648256 -187.8125 256.75 C-186.77810791 256.17644775 -185.74371582 255.60289551 -184.67797852 255.01196289 C-183.23829712 254.22486938 -183.23829712 254.22486938 -181.76953125 253.421875 C-180.49493042 252.71949707 -180.49493042 252.71949707 -179.19458008 252.00292969 C-177 251 -177 251 -174 251 C-172.46662861 253.26830087 -171.13045833 255.48564888 -169.8125 257.875 C-166.05080104 264.42191425 -161.90765773 270.24619439 -157 276 C-156.54625 276.598125 -156.0925 277.19625 -155.625 277.8125 C-144.70375303 291.85410325 -126.93509824 300.60490499 -109.75 303.55859375 C-90.77895472 305.79164387 -70.23461172 304.38929435 -54.23046875 293.03515625 C-47.39547922 286.79867719 -43.44399257 278.60540621 -42.71875 269.44921875 C-42.42560987 257.29611749 -44.45263753 247.11973317 -52.83203125 238.0078125 C-69.69210431 221.92974654 -94.4481271 215.08976584 -115.94909668 207.65289307 C-147.10381572 196.86400497 -177.70106824 183.87437128 -202 161 C-202.67675781 160.39929687 -203.35351562 159.79859375 -204.05078125 159.1796875 C-213.38532769 150.53728178 -220.49423157 138.82560885 -225 127 C-225.42925781 125.90816406 -225.85851563 124.81632812 -226.30078125 123.69140625 C-234.27643898 101.83481029 -235.59799887 77.56236938 -230 55 C-229.74476563 53.91847656 -229.48953125 52.83695313 -229.2265625 51.72265625 C-225.55668901 38.10372208 -218.37065111 25.47842188 -209 15 C-208.31421875 14.18402344 -207.6284375 13.36804687 -206.921875 12.52734375 C-182.74194809 -15.61008918 -145.97841859 -29.92371155 -109.66943359 -32.82275391 C-70.26598753 -35.4390793 -30.95077507 -24.9501146 0 0 Z " fill="#EDEDED" transform="translate(2340,3056)"/>
<path d="M0 0 C0.76650879 0.14985352 1.53301758 0.29970703 2.32275391 0.45410156 C29.99880816 6.01173173 75.51756685 20.27635027 92 45 C91.43152344 45.6290625 90.86304688 46.258125 90.27734375 46.90625 C86.66000034 50.9161265 83.04678738 54.92745355 79.5 59 C76.10746907 62.89512811 72.64805799 66.72782763 69.1875 70.5625 C67.27445851 72.69417481 65.38112388 74.8401911 63.5 77 C60.86310364 80.02754767 58.18983431 83.01937279 55.5 86 C51.62363949 90.29684708 47.79956413 94.63528331 44 99 C42.68786505 100.50031934 41.37537249 102.00032601 40.0625 103.5 C39.47597656 104.1703125 38.88945313 104.840625 38.28515625 105.53125 C37.86105469 106.0159375 37.43695312 106.500625 37 107 C32.50702369 106.42376326 29.46422031 104.66167327 25.625 102.3125 C18.36234931 98.00713104 10.9139616 94.89746135 3 92 C2.01644531 91.61972656 1.03289062 91.23945313 0.01953125 90.84765625 C-15.20292579 85.28358574 -30.93895124 84.25981669 -47 85 C-47.82790039 85.03722168 -48.65580078 85.07444336 -49.50878906 85.11279297 C-68.814856 86.14260076 -86.20045284 91.50772877 -103 101 C-103.98226563 101.54269531 -104.96453125 102.08539062 -105.9765625 102.64453125 C-113.93315184 107.3565748 -120.46780898 113.52363967 -127 120 C-127.82757812 120.8146875 -128.65515625 121.629375 -129.5078125 122.46875 C-150.34124801 144.24586029 -158.60970791 174.78827905 -158.44604492 204.23217773 C-158.43748541 206.56647857 -158.46655494 208.89835655 -158.49804688 211.23242188 C-158.54738039 221.99220143 -156.91092572 231.65958736 -154 242 C-153.81489365 242.65869583 -153.62978729 243.31739166 -153.43907166 243.99604797 C-149.08584221 259.32956258 -141.73252442 274.14331789 -131 286 C-130.32710937 286.81339844 -129.65421875 287.62679687 -128.9609375 288.46484375 C-110.4300781 310.33125784 -81.88930568 322.41621248 -53.87890625 325.6875 C-23.13673835 328.1642104 5.83189565 320.26584114 31.79296875 303.91796875 C34.50483952 302.2961313 37.0332902 301.05594756 40 300 C51.36562059 313.17335043 51.36562059 313.17335043 56.4375 319.4375 C61.59054648 325.78114205 66.97071967 331.92217562 72.3359375 338.0859375 C79.72932335 346.59006676 87.04877913 355.126971 94 364 C88.51083033 378.48347179 60.33249853 389.92686949 47 396 C42.05964354 398.19150533 37.07987812 400.16466679 32 402 C31.21447754 402.28762207 30.42895508 402.57524414 29.61962891 402.87158203 C14.67525687 408.25178601 -0.25368085 411.09752396 -16 413 C-17.0210508 413.12943748 -17.0210508 413.12943748 -18.06272888 413.26148987 C-23.24608608 413.88736555 -28.33977622 414.15999437 -33.55859375 414.16796875 C-34.3466188 414.17129715 -35.13464386 414.17462555 -35.94654846 414.17805481 C-37.60620549 414.18308206 -39.26587248 414.18546445 -40.92553711 414.18530273 C-43.40040874 414.18746756 -45.87481753 414.20560858 -48.34960938 414.22460938 C-62.61485838 414.27552432 -76.75019246 413.18534281 -90.75 410.3125 C-91.56670166 410.14516357 -92.38340332 409.97782715 -93.22485352 409.80541992 C-115.85918182 404.92502025 -138.42109907 396.43946094 -158 384 C-158.71285156 383.5472168 -159.42570312 383.09443359 -160.16015625 382.62792969 C-169.54898563 376.61097685 -178.63277939 370.40034178 -187 363 C-187.50837402 362.55188965 -188.01674805 362.1037793 -188.54052734 361.64208984 C-228.14132204 326.53247439 -252.41588626 277.74870603 -257 225 C-260.28329911 167.39901043 -245.65714311 111.66421132 -207.12890625 67.6953125 C-191.40449632 50.09932453 -173.56282147 35.57136976 -153 24 C-152.40928711 23.6601709 -151.81857422 23.3203418 -151.20996094 22.97021484 C-140.58512099 16.87681376 -129.50612456 12.17335524 -118 8 C-117.22624023 7.71882324 -116.45248047 7.43764648 -115.65527344 7.14794922 C-79.94830914 -5.46302515 -37.06858855 -7.48492738 0 0 Z " fill="#EDEDED" transform="translate(1489,3028)"/>
<path d="M0 0 C1.77117187 0.78697266 1.77117187 0.78697266 3.578125 1.58984375 C28.7755796 13.38380653 46.74880565 34.97948686 58 60 C58.29132813 60.63292969 58.58265625 61.26585938 58.8828125 61.91796875 C60.17313298 64.79405692 61 66.81049303 61 70 C59.93007813 70.27972656 58.86015625 70.55945312 57.7578125 70.84765625 C48.24499177 73.34037153 38.74363902 75.87268338 29.25 78.4375 C20.6530848 80.75705102 12.05128625 83.05634086 3.4375 85.3125 C2.51678711 85.55476318 1.59607422 85.79702637 0.64746094 86.04663086 C-4.87859853 87.48818947 -10.41791858 88.79291031 -16 90 C-16.49306641 88.87464844 -16.49306641 88.87464844 -16.99609375 87.7265625 C-21.66298204 77.68453186 -27.22891094 68.70520513 -37.95703125 64.62109375 C-46.51392505 62.01966715 -54.98928184 61.70046062 -63.09375 65.85546875 C-66.92102309 68.15340116 -69.52129564 70.28194346 -72 74 C-72.6440833 79.54211214 -73.08581549 85.8102151 -70.5625 90.9375 C-62.76150787 100.26063694 -51.10827841 103.15463236 -40 107 C47.90980193 137.59164333 47.90980193 137.59164333 63.8125 169 C73.06040795 188.40164742 74.67457405 213.55765675 67.73632812 234.04101562 C57.82483204 260.41032748 38.23356463 278.5788698 13.00683594 290.10498047 C-18.70858477 304.2495951 -56.25536703 308.10783285 -90 299 C-90.68400879 298.81808105 -91.36801758 298.63616211 -92.07275391 298.44873047 C-120.57318942 290.57610955 -147.73429416 271.46588722 -163 246 C-174 225.79573043 -174 225.79573043 -174 217 C-167.72836953 214.98959926 -161.45588182 212.98188926 -155.18286133 210.97583008 C-153.06027903 210.2967251 -150.93787569 209.61706049 -148.81567383 208.93676758 C-142.60376088 206.94571315 -136.38856512 204.96550709 -130.16815186 203.00115967 C-128.01367656 202.32032937 -125.85993376 201.6371777 -123.70684814 200.95196533 C-120.51700353 199.93926462 -117.32358099 198.93875001 -114.12890625 197.94140625 C-112.66589333 197.47407326 -112.66589333 197.47407326 -111.17332458 196.99729919 C-110.27380569 196.719189 -109.3742868 196.4410788 -108.44750977 196.15454102 C-107.26379539 195.78257347 -107.26379539 195.78257347 -106.0561676 195.40309143 C-104 195 -104 195 -101 196 C-99.52734375 198.5546875 -99.52734375 198.5546875 -97.9375 201.875 C-91.27672979 214.94153944 -81.60925057 223.5005979 -67.8125 228.375 C-56.36196006 231.60221586 -44.08017037 231.44920774 -33.53125 225.640625 C-27.65965078 221.94228004 -22.88662246 217.9176157 -21 211 C-20.34614096 206.37939615 -20.32462596 202.37783041 -22.8125 198.3125 C-31.17402714 188.68835577 -46.49958838 185.28737082 -58.0625 181.125 C-71.61961277 176.23130481 -84.92934052 171.08636123 -98 165 C-99.08954987 164.49314919 -99.08954987 164.49314919 -100.20111084 163.97605896 C-114.5020204 157.29279702 -126.5596081 148.92037409 -138 138 C-138.69609375 137.37867187 -139.3921875 136.75734375 -140.109375 136.1171875 C-151.99138385 125.11021031 -158.69425207 109.590622 -162 94 C-162.17200928 93.2164917 -162.34401855 92.4329834 -162.52124023 91.62573242 C-166.35794269 70.58354227 -160.86603752 49.66791264 -149.08984375 32.16015625 C-147.16235739 29.65481977 -145.14273254 27.32353762 -143 25 C-142.18917969 24.09765625 -141.37835937 23.1953125 -140.54296875 22.265625 C-106.57736094 -13.73891388 -43.68648525 -20.14432375 0 0 Z " fill="#EDEDED" transform="translate(908,3140)"/>
<path d="M0 0 C1.95207235 0.06127163 3.90410365 0.12386347 5.85609436 0.18768311 C7.86386028 0.21008042 9.87169203 0.22715452 11.87954712 0.23913574 C17.15030276 0.28483547 22.41705429 0.40258847 27.68623352 0.5355835 C33.06847457 0.65861079 38.45136649 0.71320279 43.83460999 0.77362061 C54.38649431 0.9021044 64.93541384 1.10674982 75.48500061 1.35955811 C74.36709766 4.77886164 73.29874119 7.98391425 71.52406311 11.11737061 C71.14121155 11.81016113 70.75835999 12.50295166 70.36390686 13.21673584 C69.74322327 14.33930786 69.74322327 14.33930786 69.11000061 15.48455811 C54.99009801 41.76933991 44.10253777 70.51300983 36.48500061 99.35955811 C36.2212262 100.34262939 35.95745178 101.32570068 35.6856842 102.33856201 C15.09831323 179.63009013 11.55845806 265.34731935 24.48500061 344.35955811 C24.68996155 345.65442139 24.89492249 346.94928467 25.10609436 348.28338623 C27.94005723 366.14482189 31.16319669 383.81410454 35.71302795 401.33172607 C36.2758158 403.53909322 36.81456674 405.75262981 37.33900452 407.96942139 C39.8357629 418.4827113 43.07449043 428.6529832 46.61000061 438.85955811 C46.89567902 439.6889389 47.18135742 440.5183197 47.47569275 441.37283325 C54.37179489 461.35036929 62.38717161 480.55226098 71.72743225 499.51898193 C72.46207703 501.01401245 72.46207703 501.01401245 73.21156311 502.53924561 C73.65065002 503.42338135 74.08973694 504.30751709 74.54212952 505.21844482 C75.48500061 507.35955811 75.48500061 507.35955811 75.48500061 509.35955811 C45.78500061 509.35955811 16.08500061 509.35955811 -14.51499939 509.35955811 C-32.78057332 474.04611518 -48.15447675 439.5486478 -57.81724548 401.12127686 C-58.42238103 398.72614272 -59.04908239 396.33883672 -59.69078064 393.95330811 C-62.36219081 383.80401231 -64.22243913 373.5541476 -66.01060486 363.21844482 C-66.50097158 360.43906712 -67.02099853 357.66694006 -67.55015564 354.89471436 C-70.51056779 339.13479084 -72.1594796 323.33023107 -73.51499939 307.35955811 C-73.67379578 305.6302002 -73.67379578 305.6302002 -73.83580017 303.86590576 C-78.04373975 257.09842514 -78.28616105 207.82096773 -69.87242126 161.49090576 C-69.48923798 159.20593985 -69.1891698 156.92068188 -68.90562439 154.62127686 C-66.33574522 133.98985255 -61.57820037 113.35973767 -55.21910095 93.55828857 C-54.71010237 91.96881519 -54.21064559 90.37627553 -53.71714783 88.78192139 C-45.97102898 63.80134306 -35.69794828 39.45368974 -23.12387085 16.50289917 C-21.45711712 13.41734185 -21.45711712 13.41734185 -20.39665222 10.20202637 C-16.10849882 -0.12341944 -10.07425837 -0.11803643 0 0 Z " fill="#EDEDED" transform="translate(1098.5149993896484,3002.6404418945313)"/>
<path d="M0 0 C29.7 0 59.4 0 90 0 C103.37313084 24.83581441 115.42491202 48.66620414 125 75 C125.27038086 75.73653809 125.54076172 76.47307617 125.81933594 77.23193359 C132.33981214 95.16098222 136.39511359 114.01770992 140.47070312 132.62255859 C140.80483016 134.12335613 141.15091386 135.62158721 141.51367188 137.11572266 C143.2064998 144.2081447 144.07414885 151.39902112 145 158.625 C145.165 159.88957031 145.33 161.15414062 145.5 162.45703125 C145.83423315 165.01861497 146.16641641 167.58046696 146.49658203 170.14257812 C146.9994626 173.99588218 147.5269643 177.84534307 148.0546875 181.6953125 C153.86008296 225.45163467 152.81506779 271.18301138 148.20892334 315.00628662 C148.00431156 316.95885568 147.80797429 318.91228619 147.61181641 320.86572266 C146.27885356 334.01588027 144.58542257 347.03781358 142 360 C141.79503906 361.05026367 141.59007813 362.10052734 141.37890625 363.18261719 C132.80641509 406.9289598 119.65861201 450.34879307 99 490 C96.03 495.94 93.06 501.88 90 508 C60.3 508 30.6 508 0 508 C1.34540698 503.96377907 2.62075306 500.48742952 4.43359375 496.7109375 C5.15144043 495.19657104 5.15144043 495.19657104 5.88378906 493.65161133 C6.39651367 492.57032959 6.90923828 491.48904785 7.4375 490.375 C20.35241753 462.73621601 31.04373249 434.13123465 38.36816406 404.50927734 C38.92305931 402.30556275 39.50663766 400.11459691 40.1171875 397.92578125 C42.96578395 387.71279011 45.08961523 377.42258592 47 367 C47.30405762 365.34556885 47.30405762 365.34556885 47.61425781 363.65771484 C51.02418741 344.83583484 53.4196463 326.05926561 55 307 C55.10441406 305.84661133 55.20882812 304.69322266 55.31640625 303.50488281 C58.89126765 263.35556922 58.75190932 222.12137332 54.2310791 182.0614624 C53.99527993 179.95789217 53.7695937 177.85342458 53.54589844 175.74853516 C51.77725299 159.25163723 49.35537764 142.99050819 45.64111328 126.80712891 C44.98911962 123.95236002 44.36496902 121.09258542 43.74609375 118.23046875 C41.29385751 106.99441844 38.47431944 95.96207687 35 85 C34.73380859 84.1430957 34.46761719 83.28619141 34.19335938 82.40332031 C25.77949135 55.46184901 15.10508724 28.44271252 0.99609375 3.93359375 C0 2 0 2 0 0 Z " fill="#EDEDED" transform="translate(2793,3004)"/>
<path d="M0 0 C78.33663366 0 78.33663366 0 94 14 C94.60328125 14.50015625 95.2065625 15.0003125 95.828125 15.515625 C103.98213037 22.81877764 108.2301322 33.22185086 109 44 C110.11095242 67.32535257 110.11095242 67.32535257 106 77 C105.57460937 78.01320313 105.14921875 79.02640625 104.7109375 80.0703125 C99.08701932 92.31060501 90.99248368 98.79471234 78.625 103.6875 C53.65320607 111.26091291 25.10045879 108 0 108 C0 72.36 0 36.72 0 0 Z " fill="#121212" transform="translate(2543,3116)"/>
<path d="M0 0 C0.66 0 1.32 0 2 0 C12.6124363 24.65795359 23.09022942 49.37126349 33.51660156 74.10839844 C37.31130985 83.11150044 41.10869982 92.11347013 44.90759277 101.11480713 C46.0785673 103.88995688 47.24879326 106.66542134 48.41894531 109.44091797 C49.15683225 111.18980767 49.89478683 112.93866884 50.6328125 114.6875 C50.98738525 115.52854279 51.34195801 116.36958557 51.70727539 117.2361145 C53.63563771 121.80185061 55.58352885 126.35838979 57.55371094 130.90625 C58.1809053 132.35704956 58.1809053 132.35704956 58.82077026 133.8371582 C59.62791422 135.70165616 60.43811559 137.56483429 61.2517395 139.42651367 C61.61194183 140.25900635 61.97214417 141.09149902 62.34326172 141.94921875 C62.66382538 142.68487061 62.98438904 143.42052246 63.31466675 144.1784668 C64 146 64 146 64 148 C22.42 148 -19.16 148 -62 148 C-60.02601712 142.07805136 -58.01231431 136.40910615 -55.55078125 130.70703125 C-55.22153152 129.93605103 -54.8922818 129.1650708 -54.55305481 128.37072754 C-53.84527234 126.71432031 -53.13591417 125.05858564 -52.42510986 123.4034729 C-50.8940095 119.83794676 -49.37091697 116.26901783 -47.84741211 112.70024109 C-47.05790506 110.8508911 -46.26802574 109.00170001 -45.4777832 107.15266418 C-41.66129107 98.21944861 -37.88880246 89.26801313 -34.125 80.3125 C-32.81663089 77.20172841 -31.50790014 74.09110898 -30.19921875 70.98046875 C-29.86740601 70.19165817 -29.53559326 69.4028476 -29.19372559 68.59013367 C-25.19604148 59.08720951 -21.19354961 49.5863157 -17.18670654 40.08724976 C-16.36814749 38.14619656 -15.54997725 36.20497935 -14.73223877 34.26358032 C-9.9053972 22.80468903 -5.02089166 11.37531604 0 0 Z " fill="#121212" transform="translate(1838,3145)"/>
</svg>
